<?xml version="1.0" encoding="iso-8859-1"?>
<!-- Uploaded to: SVG Repo, www.svgrepo.com, Transformed by: SVG Repo Mixer Tools -->
<svg version="1.1" id="Layer_1" xmlns="http://www.w3.org/2000/svg" xmlns:xlink="http://www.w3.org/1999/xlink" 
	 viewBox="0 0 392.533 392.533" xml:space="preserve">
<path style="fill:#FFFFFF;" d="M94.707,128.453v43.766l53.075,22.238c22.562,9.438,34.909,33.551,29.22,57.341
	c-16.873,70.852-13.899,105.115-5.56,113.519c2.263,2.263,11.378,5.43,24.76,5.43c13.317,0,22.497-3.168,24.76-5.43
	c8.404-8.404,11.378-42.602-5.56-113.519c-5.624-23.79,6.659-47.903,29.22-57.341l53.139-22.238v-43.766L94.707,128.453z"/>
<rect x="94.707" y="21.915" style="fill:#FFC10D;" width="203.055" height="84.558"/>
<path style="fill:#194F82;" d="M308.752,0H83.782c-6.012,0-10.99,4.978-10.99,10.99v168.469c0,4.396,2.651,8.404,6.723,10.15
	l59.863,25.018c12.671,5.236,19.523,18.747,16.356,32c-17.067,71.693-17.002,116.816,0.323,134.077
	c10.667,10.667,31.677,11.83,40.21,11.83c8.469,0,29.543-1.164,40.21-11.83c17.325-17.325,17.39-62.384,0.323-134.077
	c-3.168-13.317,3.685-26.764,16.356-32l59.863-25.018c4.073-1.681,6.723-5.689,6.723-10.15V10.99C319.741,4.913,314.828,0,308.752,0
	z M297.826,172.154l-53.075,22.238c-22.562,9.438-34.909,33.552-29.22,57.341c16.873,70.853,13.899,105.115,5.56,113.519
	c-2.263,2.263-11.378,5.43-24.63,5.43c-13.253,0-22.497-3.168-24.76-5.43c-8.404-8.404-11.378-42.602,5.56-113.455
	c5.624-23.79-6.659-47.903-29.22-57.341l-53.139-22.238v-43.766h30.255v28.186c0,6.012,4.913,10.99,10.99,10.99
	s10.99-4.913,10.99-10.99v-28.186h29.285v21.398c0,6.012,4.913,10.99,10.99,10.99c6.012,0,10.99-4.913,10.99-10.99v-21.398h55.855
	v22.562c0,6.012,4.913,10.99,10.99,10.99s10.99-4.913,10.99-10.99v-22.497h21.657L297.826,172.154L297.826,172.154z
	 M297.826,106.473H94.707V21.915h45.899v22.238c0,6.012,4.913,10.99,10.99,10.99s10.99-4.978,10.99-10.99V21.915h85.527v42.279
	c0,6.012,4.913,10.99,10.99,10.99c6.077,0,10.99-4.913,10.99-10.99V21.915h27.669v84.558H297.826z"/>
</svg>